<svg width="207" height="149" viewBox="0 0 207 149" fill="none" xmlns="http://www.w3.org/2000/svg">
<rect width="206.009" height="45.3478" rx="10.3652" fill="#D9D9D9"/>
<path d="M56.7879 19.4759C56.7216 18.9164 56.4529 18.4821 55.9818 18.1729C55.5106 17.8637 54.9327 17.7091 54.2481 17.7091C53.7475 17.7091 53.3095 17.7901 52.934 17.952C52.5623 18.114 52.2715 18.3367 52.0617 18.6201C51.8556 18.9035 51.7525 19.2256 51.7525 19.5863C51.7525 19.8882 51.8243 20.1477 51.9678 20.3648C52.1151 20.5783 52.3028 20.7568 52.531 20.9004C52.7592 21.0403 52.9985 21.1562 53.2487 21.2482C53.499 21.3366 53.7291 21.4083 53.9389 21.4636L55.0873 21.7727C55.3818 21.85 55.7094 21.9568 56.0701 22.093C56.4345 22.2292 56.7823 22.4151 57.1136 22.6506C57.4486 22.8825 57.7246 23.1807 57.9418 23.5451C58.159 23.9095 58.2676 24.3567 58.2676 24.8867C58.2676 25.4977 58.1074 26.0499 57.7872 26.5431C57.4707 27.0363 57.0069 27.4283 56.3959 27.7191C55.7885 28.0099 55.0505 28.1553 54.1818 28.1553C53.3721 28.1553 52.6709 28.0246 52.0782 27.7633C51.4893 27.502 51.0255 27.1376 50.6869 26.6701C50.3519 26.2026 50.1624 25.6597 50.1182 25.0413H51.5316C51.5684 25.4683 51.712 25.8217 51.9623 26.1014C52.2163 26.3775 52.5365 26.5836 52.923 26.7198C53.3132 26.8523 53.7328 26.9185 54.1818 26.9185C54.7045 26.9185 55.1738 26.8339 55.5898 26.6646C56.0057 26.4916 56.3351 26.2523 56.5781 25.9468C56.821 25.6376 56.9425 25.2769 56.9425 24.8646C56.9425 24.4892 56.8376 24.1837 56.6277 23.9481C56.4179 23.7125 56.1419 23.5211 55.7996 23.3739C55.4572 23.2267 55.0873 23.0978 54.6898 22.9874L53.2984 22.5899C52.415 22.3359 51.7157 21.9734 51.2004 21.5022C50.685 21.0311 50.4274 20.4145 50.4274 19.6526C50.4274 19.0195 50.5985 18.4674 50.9409 17.9962C51.2869 17.5214 51.7506 17.1533 52.3322 16.892C52.9175 16.6269 53.5708 16.4944 54.2923 16.4944C55.0211 16.4944 55.6689 16.6251 56.2357 16.8864C56.8026 17.1441 57.2517 17.4975 57.5829 17.9465C57.9179 18.3956 58.0946 18.9054 58.113 19.4759H56.7879ZM64.0304 19.4759V20.5802H59.6354V19.4759H64.0304ZM60.9164 17.4441H62.2194V25.5272C62.2194 25.8953 62.2728 26.1713 62.3795 26.3554C62.4899 26.5357 62.6298 26.6572 62.7991 26.7198C62.9721 26.7787 63.1543 26.8081 63.3457 26.8081C63.4893 26.8081 63.6071 26.8008 63.6991 26.786C63.7911 26.7676 63.8647 26.7529 63.9199 26.7419L64.185 27.9124C64.0966 27.9455 63.9733 27.9786 63.815 28.0118C63.6568 28.0486 63.4561 28.067 63.2132 28.067C62.8451 28.067 62.4844 27.9878 62.1311 27.8296C61.7814 27.6713 61.4906 27.4302 61.2587 27.1063C61.0305 26.7824 60.9164 26.3738 60.9164 25.8806V17.4441ZM68.486 28.1553C67.9486 28.1553 67.4609 28.0541 67.0229 27.8516C66.5849 27.6455 66.237 27.3492 65.9794 26.9627C65.7217 26.5726 65.5929 26.1014 65.5929 25.5493C65.5929 25.0634 65.6886 24.6696 65.88 24.3677C66.0714 24.0622 66.3272 23.823 66.6474 23.65C66.9677 23.477 67.321 23.3481 67.7075 23.2635C68.0977 23.1751 68.4897 23.1052 68.8835 23.0537C69.3988 22.9874 69.8166 22.9377 70.1369 22.9046C70.4608 22.8678 70.6963 22.8071 70.8436 22.7224C70.9945 22.6377 71.0699 22.4905 71.0699 22.2807V22.2365C71.0699 21.6918 70.9209 21.2685 70.6227 20.9666C70.3283 20.6648 69.881 20.5139 69.2811 20.5139C68.659 20.5139 68.1713 20.6501 67.8179 20.9225C67.4646 21.1949 67.2161 21.4856 67.0726 21.7948L65.8358 21.3531C66.0567 20.8378 66.3511 20.4366 66.7192 20.1495C67.091 19.8587 67.4959 19.6563 67.9339 19.5422C68.3756 19.4244 68.8099 19.3655 69.2369 19.3655C69.5093 19.3655 69.8221 19.3986 70.1755 19.4649C70.5325 19.5274 70.8767 19.6581 71.208 19.8569C71.5429 20.0556 71.8208 20.3556 72.0417 20.7568C72.2625 21.158 72.373 21.6955 72.373 22.369V27.9565H71.0699V26.8081H71.0037C70.9154 26.9922 70.7681 27.1891 70.562 27.3989C70.3559 27.6087 70.0816 27.7872 69.7393 27.9345C69.397 28.0817 68.9792 28.1553 68.486 28.1553ZM68.6848 26.9848C69.2001 26.9848 69.6344 26.8836 69.9878 26.6811C70.3448 26.4787 70.6135 26.2174 70.7939 25.8971C70.9779 25.5769 71.0699 25.2401 71.0699 24.8867V23.6941C71.0147 23.7604 70.8933 23.8211 70.7055 23.8763C70.5215 23.9279 70.308 23.9739 70.0651 24.0144C69.8258 24.0512 69.5921 24.0843 69.3639 24.1138C69.1394 24.1395 68.9571 24.1616 68.8173 24.18C68.4786 24.2242 68.1621 24.296 67.8676 24.3953C67.5768 24.491 67.3413 24.6364 67.1609 24.8315C66.9842 25.0229 66.8959 25.2843 66.8959 25.6155C66.8959 26.0683 67.0634 26.4106 67.3983 26.6425C67.737 26.8707 68.1658 26.9848 68.6848 26.9848ZM74.7512 27.9565V19.4759H76.0101V20.7568H76.0984C76.253 20.3372 76.5328 19.9967 76.9376 19.7354C77.3425 19.4741 77.799 19.3434 78.3069 19.3434C78.4026 19.3434 78.5222 19.3452 78.6658 19.3489C78.8094 19.3526 78.9179 19.3581 78.9916 19.3655V20.6906C78.9474 20.6795 78.8462 20.663 78.6879 20.6409C78.5333 20.6151 78.3695 20.6022 78.1965 20.6022C77.7842 20.6022 77.4162 20.6887 77.0922 20.8617C76.772 21.0311 76.518 21.2666 76.3303 21.5685C76.1463 21.8666 76.0543 22.2071 76.0543 22.5899V27.9565H74.7512ZM84.7557 19.4759V20.5802H80.3608V19.4759H84.7557ZM81.6417 17.4441H82.9448V25.5272C82.9448 25.8953 82.9981 26.1713 83.1049 26.3554C83.2153 26.5357 83.3552 26.6572 83.5245 26.7198C83.6975 26.7787 83.8797 26.8081 84.0711 26.8081C84.2146 26.8081 84.3324 26.8008 84.4245 26.786C84.5165 26.7676 84.5901 26.7529 84.6453 26.7419L84.9103 27.9124C84.822 27.9455 84.6987 27.9786 84.5404 28.0118C84.3821 28.0486 84.1815 28.067 83.9386 28.067C83.5705 28.067 83.2098 27.9878 82.8564 27.8296C82.5067 27.6713 82.216 27.4302 81.9841 27.1063C81.7559 26.7824 81.6417 26.3738 81.6417 25.8806V17.4441ZM93.01 27.9565L90.4261 19.4759H91.7953L93.6284 25.9689H93.7167L95.5277 19.4759H96.919L98.7079 25.9468H98.7963L100.629 19.4759H101.999L99.4146 27.9565H98.1337L96.2786 21.4415H96.1461L94.2909 27.9565H93.01ZM106.217 28.1553C105.679 28.1553 105.192 28.0541 104.754 27.8516C104.316 27.6455 103.968 27.3492 103.71 26.9627C103.453 26.5726 103.324 26.1014 103.324 25.5493C103.324 25.0634 103.419 24.6696 103.611 24.3677C103.802 24.0622 104.058 23.823 104.378 23.65C104.698 23.477 105.052 23.3481 105.438 23.2635C105.828 23.1751 106.22 23.1052 106.614 23.0537C107.13 22.9874 107.547 22.9377 107.868 22.9046C108.192 22.8678 108.427 22.8071 108.574 22.7224C108.725 22.6377 108.801 22.4905 108.801 22.2807V22.2365C108.801 21.6918 108.652 21.2685 108.354 20.9666C108.059 20.6648 107.612 20.5139 107.012 20.5139C106.39 20.5139 105.902 20.6501 105.549 20.9225C105.195 21.1949 104.947 21.4856 104.803 21.7948L103.567 21.3531C103.787 20.8378 104.082 20.4366 104.45 20.1495C104.822 19.8587 105.227 19.6563 105.665 19.5422C106.106 19.4244 106.541 19.3655 106.968 19.3655C107.24 19.3655 107.553 19.3986 107.906 19.4649C108.263 19.5274 108.608 19.6581 108.939 19.8569C109.274 20.0556 109.552 20.3556 109.772 20.7568C109.993 21.158 110.104 21.6955 110.104 22.369V27.9565H108.801V26.8081H108.734C108.646 26.9922 108.499 27.1891 108.293 27.3989C108.087 27.6087 107.812 27.7872 107.47 27.9345C107.128 28.0817 106.71 28.1553 106.217 28.1553ZM106.416 26.9848C106.931 26.9848 107.365 26.8836 107.719 26.6811C108.076 26.4787 108.344 26.2174 108.525 25.8971C108.709 25.5769 108.801 25.2401 108.801 24.8867V23.6941C108.746 23.7604 108.624 23.8211 108.436 23.8763C108.252 23.9279 108.039 23.9739 107.796 24.0144C107.557 24.0512 107.323 24.0843 107.095 24.1138C106.87 24.1395 106.688 24.1616 106.548 24.18C106.209 24.2242 105.893 24.296 105.598 24.3953C105.308 24.491 105.072 24.6364 104.892 24.8315C104.715 25.0229 104.627 25.2843 104.627 25.6155C104.627 26.0683 104.794 26.4106 105.129 26.6425C105.468 26.8707 105.897 26.9848 106.416 26.9848ZM116.17 19.4759V20.5802H111.775V19.4759H116.17ZM113.056 17.4441H114.359V25.5272C114.359 25.8953 114.413 26.1713 114.519 26.3554C114.63 26.5357 114.77 26.6572 114.939 26.7198C115.112 26.7787 115.294 26.8081 115.486 26.8081C115.629 26.8081 115.747 26.8008 115.839 26.786C115.931 26.7676 116.005 26.7529 116.06 26.7419L116.325 27.9124C116.236 27.9455 116.113 27.9786 115.955 28.0118C115.797 28.0486 115.596 28.067 115.353 28.067C114.985 28.067 114.624 27.9878 114.271 27.8296C113.921 27.6713 113.63 27.4302 113.399 27.1063C113.17 26.7824 113.056 26.3738 113.056 25.8806V17.4441ZM121.484 28.1332C120.689 28.1332 120.005 27.9455 119.431 27.5701C118.856 27.1946 118.415 26.6775 118.105 26.0186C117.796 25.3597 117.642 24.607 117.642 23.7604C117.642 22.8991 117.8 22.139 118.116 21.4801C118.437 20.8176 118.882 20.3004 119.453 19.9287C120.027 19.5532 120.697 19.3655 121.462 19.3655C122.059 19.3655 122.596 19.4759 123.075 19.6968C123.553 19.9176 123.945 20.2268 124.251 20.6243C124.556 21.0219 124.746 21.4856 124.819 22.0157H123.516C123.417 21.6292 123.196 21.2869 122.854 20.9887C122.515 20.6869 122.059 20.536 121.484 20.536C120.976 20.536 120.531 20.6685 120.148 20.9335C119.769 21.1949 119.473 21.5648 119.259 22.0433C119.05 22.5181 118.945 23.0758 118.945 23.7162C118.945 24.3714 119.048 24.9419 119.254 25.4278C119.464 25.9137 119.758 26.291 120.137 26.5597C120.52 26.8284 120.969 26.9627 121.484 26.9627C121.823 26.9627 122.13 26.9038 122.406 26.786C122.683 26.6683 122.916 26.4989 123.108 26.2781C123.299 26.0572 123.435 25.7922 123.516 25.483H124.819C124.746 25.9836 124.563 26.4345 124.273 26.8357C123.986 27.2333 123.605 27.5498 123.13 27.7854C122.659 28.0173 122.11 28.1332 121.484 28.1332ZM128.027 22.8549V27.9565H126.724V16.649H128.027V20.801H128.138C128.336 20.363 128.634 20.0152 129.032 19.7575C129.433 19.4962 129.967 19.3655 130.633 19.3655C131.211 19.3655 131.717 19.4814 132.151 19.7133C132.586 19.9415 132.923 20.2931 133.162 20.7679C133.405 21.239 133.526 21.839 133.526 22.5678V27.9565H132.223V22.6561C132.223 21.9826 132.048 21.4617 131.699 21.0936C131.353 20.7219 130.872 20.536 130.258 20.536C129.831 20.536 129.448 20.6262 129.109 20.8065C128.774 20.9869 128.509 21.2501 128.314 21.5961C128.123 21.9421 128.027 22.3617 128.027 22.8549ZM135.91 27.9565V19.4759H137.213V27.9565H135.91ZM136.573 18.0625C136.319 18.0625 136.1 17.976 135.916 17.803C135.735 17.63 135.645 17.422 135.645 17.1791C135.645 16.9361 135.735 16.7282 135.916 16.5552C136.1 16.3822 136.319 16.2957 136.573 16.2957C136.827 16.2957 137.044 16.3822 137.224 16.5552C137.408 16.7282 137.5 16.9361 137.5 17.1791C137.5 17.422 137.408 17.63 137.224 17.803C137.044 17.976 136.827 18.0625 136.573 18.0625ZM140.903 22.8549V27.9565H139.6V19.4759H140.858V20.801H140.969C141.168 20.3704 141.47 20.0244 141.874 19.763C142.279 19.498 142.802 19.3655 143.442 19.3655C144.017 19.3655 144.519 19.4833 144.95 19.7188C145.38 19.9507 145.715 20.3041 145.955 20.7789C146.194 21.2501 146.313 21.8464 146.313 22.5678V27.9565H145.01V22.6561C145.01 21.9899 144.837 21.4709 144.491 21.0992C144.145 20.7237 143.671 20.536 143.067 20.536C142.651 20.536 142.279 20.6262 141.952 20.8065C141.628 20.9869 141.372 21.2501 141.184 21.5961C140.997 21.9421 140.903 22.3617 140.903 22.8549ZM152.118 31.3135C151.488 31.3135 150.947 31.2325 150.494 31.0705C150.042 30.9122 149.664 30.7024 149.363 30.4411C149.064 30.1834 148.827 29.9074 148.65 29.6129L149.688 28.8841C149.806 29.0387 149.955 29.2154 150.136 29.4142C150.316 29.6166 150.563 29.7914 150.875 29.9387C151.192 30.0896 151.606 30.165 152.118 30.165C152.802 30.165 153.367 29.9994 153.813 29.6681C154.258 29.3369 154.481 28.8179 154.481 28.1111V26.3885H154.37C154.275 26.5431 154.138 26.7345 153.962 26.9627C153.789 27.1872 153.538 27.3879 153.211 27.5645C152.887 27.7375 152.449 27.824 151.897 27.824C151.212 27.824 150.598 27.6621 150.053 27.3382C149.512 27.0143 149.083 26.5431 148.766 25.9247C148.453 25.3063 148.297 24.5555 148.297 23.6721C148.297 22.8034 148.45 22.047 148.755 21.4028C149.061 20.755 149.486 20.2544 150.031 19.901C150.575 19.544 151.205 19.3655 151.919 19.3655C152.471 19.3655 152.909 19.4575 153.233 19.6415C153.561 19.8219 153.811 20.028 153.984 20.2599C154.161 20.4881 154.297 20.6759 154.392 20.8231H154.525V19.4759H155.784V28.1995C155.784 28.9283 155.618 29.5209 155.287 29.9773C154.959 30.4374 154.518 30.7742 153.962 30.9877C153.41 31.2049 152.795 31.3135 152.118 31.3135ZM152.074 26.6535C152.596 26.6535 153.038 26.5339 153.399 26.2946C153.759 26.0554 154.034 25.7112 154.221 25.2622C154.409 24.8131 154.503 24.2757 154.503 23.65C154.503 23.039 154.411 22.4997 154.227 22.0322C154.043 21.5648 153.77 21.1985 153.41 20.9335C153.049 20.6685 152.604 20.536 152.074 20.536C151.521 20.536 151.061 20.6759 150.693 20.9556C150.329 21.2353 150.055 21.6108 149.871 22.0819C149.69 22.5531 149.6 23.0758 149.6 23.65C149.6 24.2389 149.692 24.7597 149.876 25.2125C150.064 25.6615 150.34 26.0149 150.704 26.2726C151.072 26.5265 151.529 26.6535 152.074 26.6535Z" fill="black"/>
<path d="M31.0956 15.5479V32.3913L44.3298 23.9696L31.0956 15.5479Z" fill="black"/>
<rect y="51.8262" width="206.009" height="45.3478" rx="10.3652" fill="#D9D9D9"/>
<path d="M70.9369 79.7827H67.4475V68.4752H71.0915C72.1884 68.4752 73.127 68.7016 73.9074 69.1543C74.6877 69.6034 75.2858 70.2494 75.7018 71.0923C76.1177 71.9315 76.3257 72.9364 76.3257 74.1069C76.3257 75.2847 76.1159 76.2988 75.6963 77.1491C75.2766 77.9957 74.6656 78.6472 73.8632 79.1036C73.0608 79.5563 72.0854 79.7827 70.9369 79.7827ZM68.8168 78.568H70.8486C71.7835 78.568 72.5583 78.3877 73.173 78.027C73.7877 77.6662 74.246 77.1528 74.5478 76.4865C74.8497 75.8203 75.0006 75.0271 75.0006 74.1069C75.0006 73.194 74.8515 72.4082 74.5534 71.7493C74.2552 71.0868 73.8098 70.5788 73.2172 70.2254C72.6246 69.8684 71.8866 69.6899 71.0032 69.6899H68.8168V78.568ZM81.8911 79.9594C81.1255 79.9594 80.4537 79.7772 79.8758 79.4128C79.3016 79.0484 78.8526 78.5386 78.5287 77.8834C78.2084 77.2282 78.0483 76.4626 78.0483 75.5866C78.0483 74.7032 78.2084 73.932 78.5287 73.2732C78.8526 72.6143 79.3016 72.1027 79.8758 71.7383C80.4537 71.3739 81.1255 71.1917 81.8911 71.1917C82.6567 71.1917 83.3266 71.3739 83.9008 71.7383C84.4787 72.1027 84.9278 72.6143 85.248 73.2732C85.5719 73.932 85.7339 74.7032 85.7339 75.5866C85.7339 76.4626 85.5719 77.2282 85.248 77.8834C84.9278 78.5386 84.4787 79.0484 83.9008 79.4128C83.3266 79.7772 82.6567 79.9594 81.8911 79.9594ZM81.8911 78.7889C82.4727 78.7889 82.9512 78.6398 83.3266 78.3417C83.7021 78.0435 83.98 77.6515 84.1603 77.1656C84.3407 76.6798 84.4309 76.1534 84.4309 75.5866C84.4309 75.0197 84.3407 74.4915 84.1603 74.002C83.98 73.5124 83.7021 73.1167 83.3266 72.8149C82.9512 72.5131 82.4727 72.3622 81.8911 72.3622C81.3095 72.3622 80.831 72.5131 80.4556 72.8149C80.0801 73.1167 79.8022 73.5124 79.6219 74.002C79.4415 74.4915 79.3513 75.0197 79.3513 75.5866C79.3513 76.1534 79.4415 76.6798 79.6219 77.1656C79.8022 77.6515 80.0801 78.0435 80.4556 78.3417C80.831 78.6398 81.3095 78.7889 81.8911 78.7889ZM89.3558 79.7827L86.7719 71.3021H88.1411L89.9742 77.7951H90.0625L91.8735 71.3021H93.2649L95.0537 77.773H95.1421L96.9751 71.3021H98.3444L95.7605 79.7827H94.4795L92.6244 73.2676H92.4919L90.6367 79.7827H89.3558ZM101.37 74.6811V79.7827H100.067V71.3021H101.326V72.6272H101.436C101.635 72.1965 101.937 71.8505 102.342 71.5892C102.747 71.3242 103.269 71.1917 103.91 71.1917C104.484 71.1917 104.986 71.3094 105.417 71.545C105.848 71.7769 106.183 72.1303 106.422 72.6051C106.661 73.0762 106.781 73.6725 106.781 74.394V79.7827H105.478V74.4823C105.478 73.8161 105.305 73.2971 104.959 72.9253C104.613 72.5499 104.138 72.3622 103.534 72.3622C103.118 72.3622 102.747 72.4523 102.419 72.6327C102.095 72.8131 101.839 73.0762 101.652 73.4222C101.464 73.7682 101.37 74.1879 101.37 74.6811ZM110.465 68.4752V79.7827H109.162V68.4752H110.465ZM116.297 79.9594C115.531 79.9594 114.859 79.7772 114.281 79.4128C113.707 79.0484 113.258 78.5386 112.934 77.8834C112.614 77.2282 112.454 76.4626 112.454 75.5866C112.454 74.7032 112.614 73.932 112.934 73.2732C113.258 72.6143 113.707 72.1027 114.281 71.7383C114.859 71.3739 115.531 71.1917 116.297 71.1917C117.062 71.1917 117.732 71.3739 118.306 71.7383C118.884 72.1027 119.333 72.6143 119.654 73.2732C119.978 73.932 120.14 74.7032 120.14 75.5866C120.14 76.4626 119.978 77.2282 119.654 77.8834C119.333 78.5386 118.884 79.0484 118.306 79.4128C117.732 79.7772 117.062 79.9594 116.297 79.9594ZM116.297 78.7889C116.878 78.7889 117.357 78.6398 117.732 78.3417C118.108 78.0435 118.386 77.6515 118.566 77.1656C118.746 76.6798 118.837 76.1534 118.837 75.5866C118.837 75.0197 118.746 74.4915 118.566 74.002C118.386 73.5124 118.108 73.1167 117.732 72.8149C117.357 72.5131 116.878 72.3622 116.297 72.3622C115.715 72.3622 115.237 72.5131 114.861 72.8149C114.486 73.1167 114.208 73.5124 114.028 74.002C113.847 74.4915 113.757 75.0197 113.757 75.5866C113.757 76.1534 113.847 76.6798 114.028 77.1656C114.208 77.6515 114.486 78.0435 114.861 78.3417C115.237 78.6398 115.715 78.7889 116.297 78.7889ZM124.624 79.9815C124.087 79.9815 123.599 79.8803 123.161 79.6778C122.723 79.4717 122.375 79.1754 122.118 78.7889C121.86 78.3987 121.731 77.9276 121.731 77.3755C121.731 76.8896 121.827 76.4957 122.018 76.1939C122.21 75.8884 122.465 75.6491 122.786 75.4761C123.106 75.3031 123.459 75.1743 123.846 75.0897C124.236 75.0013 124.628 74.9314 125.022 74.8798C125.537 74.8136 125.955 74.7639 126.275 74.7308C126.599 74.694 126.834 74.6332 126.982 74.5486C127.133 74.4639 127.208 74.3167 127.208 74.1069V74.0627C127.208 73.5179 127.059 73.0946 126.761 72.7928C126.466 72.491 126.019 72.3401 125.419 72.3401C124.797 72.3401 124.309 72.4763 123.956 72.7486C123.603 73.021 123.354 73.3118 123.211 73.621L121.974 73.1793C122.195 72.664 122.489 72.2628 122.857 71.9757C123.229 71.6849 123.634 71.4824 124.072 71.3683C124.514 71.2506 124.948 71.1917 125.375 71.1917C125.647 71.1917 125.96 71.2248 126.314 71.291C126.671 71.3536 127.015 71.4843 127.346 71.683C127.681 71.8818 127.959 72.1818 128.18 72.583C128.401 72.9842 128.511 73.5216 128.511 74.1952V79.7827H127.208V78.6343H127.142C127.053 78.8183 126.906 79.0153 126.7 79.2251C126.494 79.4349 126.22 79.6134 125.877 79.7606C125.535 79.9079 125.117 79.9815 124.624 79.9815ZM124.823 78.811C125.338 78.811 125.773 78.7098 126.126 78.5073C126.483 78.3049 126.752 78.0435 126.932 77.7233C127.116 77.4031 127.208 77.0663 127.208 76.7129V75.5203C127.153 75.5866 127.031 75.6473 126.844 75.7025C126.66 75.754 126.446 75.8001 126.203 75.8405C125.964 75.8774 125.73 75.9105 125.502 75.9399C125.277 75.9657 125.095 75.9878 124.955 76.0062C124.617 76.0504 124.3 76.1221 124.006 76.2215C123.715 76.3172 123.479 76.4626 123.299 76.6577C123.122 76.8491 123.034 77.1104 123.034 77.4417C123.034 77.8944 123.202 78.2368 123.536 78.4687C123.875 78.6969 124.304 78.811 124.823 78.811ZM134.092 79.9594C133.385 79.9594 132.761 79.7809 132.22 79.4238C131.679 79.0631 131.256 78.5552 130.95 77.9C130.645 77.2411 130.492 76.4626 130.492 75.5645C130.492 74.6737 130.645 73.9007 130.95 73.2456C131.256 72.5904 131.681 72.0843 132.226 71.7272C132.77 71.3702 133.4 71.1917 134.114 71.1917C134.666 71.1917 135.102 71.2837 135.422 71.4677C135.746 71.6481 135.993 71.8542 136.162 72.0861C136.335 72.3143 136.47 72.502 136.565 72.6493H136.676V68.4752H137.979V79.7827H136.72V78.4797H136.565C136.47 78.6343 136.333 78.8294 136.157 79.065C135.98 79.2968 135.728 79.5048 135.4 79.6889C135.073 79.8692 134.636 79.9594 134.092 79.9594ZM134.268 78.7889C134.791 78.7889 135.233 78.6527 135.593 78.3803C135.954 78.1043 136.228 77.7233 136.416 77.2374C136.604 76.7479 136.698 76.1829 136.698 75.5424C136.698 74.9093 136.606 74.3553 136.422 73.8805C136.238 73.402 135.965 73.0302 135.605 72.7652C135.244 72.4965 134.798 72.3622 134.268 72.3622C133.716 72.3622 133.256 72.5039 132.888 72.7873C132.524 73.067 132.249 73.448 132.065 73.9302C131.885 74.4087 131.795 74.9461 131.795 75.5424C131.795 76.1461 131.887 76.6945 132.071 77.1877C132.259 77.6773 132.535 78.0674 132.899 78.3582C133.267 78.6453 133.724 78.7889 134.268 78.7889Z" fill="black"/>
<path d="M58.3044 72.1862H54.2323V66.0781H48.1242V72.1862H44.0522L51.1783 79.3123L58.3044 72.1862ZM44.0522 81.3483V83.3843H58.3044V81.3483H44.0522Z" fill="black"/>
<rect y="103.652" width="206.009" height="45.3478" rx="10.3652" fill="#D9D9D9"/>
<path d="M69.7664 131.808C69.229 131.808 68.7413 131.706 68.3033 131.504C67.8653 131.298 67.5175 131.002 67.2598 130.615C67.0021 130.225 66.8733 129.754 66.8733 129.202C66.8733 128.716 66.969 128.322 67.1604 128.02C67.3518 127.715 67.6076 127.475 67.9279 127.302C68.2481 127.129 68.6015 127 68.9879 126.916C69.3781 126.827 69.7701 126.758 70.164 126.706C70.6793 126.64 71.0971 126.59 71.4173 126.557C71.7412 126.52 71.9768 126.459 72.124 126.375C72.2749 126.29 72.3504 126.143 72.3504 125.933V125.889C72.3504 125.344 72.2013 124.921 71.9032 124.619C71.6087 124.317 71.1615 124.166 70.5615 124.166C69.9394 124.166 69.4517 124.302 69.0984 124.575C68.745 124.847 68.4966 125.138 68.353 125.447L67.1162 125.005C67.3371 124.49 67.6316 124.089 67.9996 123.802C68.3714 123.511 68.7763 123.309 69.2143 123.195C69.656 123.077 70.0904 123.018 70.5173 123.018C70.7897 123.018 71.1026 123.051 71.4559 123.117C71.813 123.18 72.1571 123.31 72.4884 123.509C72.8234 123.708 73.1013 124.008 73.3221 124.409C73.543 124.81 73.6534 125.348 73.6534 126.021V131.609H72.3504V130.46H72.2841C72.1958 130.645 72.0486 130.841 71.8424 131.051C71.6363 131.261 71.3621 131.44 71.0198 131.587C70.6774 131.734 70.2597 131.808 69.7664 131.808ZM69.9652 130.637C70.4805 130.637 70.9149 130.536 71.2682 130.333C71.6253 130.131 71.894 129.87 72.0743 129.549C72.2584 129.229 72.3504 128.892 72.3504 128.539V127.346C72.2952 127.413 72.1737 127.473 71.986 127.529C71.8019 127.58 71.5884 127.626 71.3455 127.667C71.1063 127.704 70.8725 127.737 70.6443 127.766C70.4198 127.792 70.2376 127.814 70.0977 127.832C69.7591 127.877 69.4425 127.948 69.1481 128.048C68.8573 128.143 68.6217 128.289 68.4413 128.484C68.2647 128.675 68.1763 128.937 68.1763 129.268C68.1763 129.721 68.3438 130.063 68.6788 130.295C69.0174 130.523 69.4462 130.637 69.9652 130.637ZM79.234 131.786C78.5273 131.786 77.9034 131.607 77.3623 131.25C76.8212 130.889 76.3979 130.381 76.0924 129.726C75.7869 129.067 75.6341 128.289 75.6341 127.391C75.6341 126.5 75.7869 125.727 76.0924 125.072C76.3979 124.417 76.8231 123.91 77.3678 123.553C77.9126 123.196 78.542 123.018 79.2561 123.018C79.8082 123.018 80.2444 123.11 80.5646 123.294C80.8885 123.474 81.1351 123.68 81.3045 123.912C81.4775 124.14 81.6118 124.328 81.7075 124.475H81.8179V120.301H83.121V131.609H81.8621V130.306H81.7075C81.6118 130.46 81.4756 130.656 81.2989 130.891C81.1223 131.123 80.8701 131.331 80.5425 131.515C80.2149 131.695 79.7788 131.786 79.234 131.786ZM79.4107 130.615C79.9334 130.615 80.3751 130.479 80.7358 130.206C81.0965 129.93 81.3707 129.549 81.5584 129.064C81.7462 128.574 81.84 128.009 81.84 127.369C81.84 126.735 81.748 126.182 81.564 125.707C81.3799 125.228 81.1075 124.856 80.7468 124.591C80.3861 124.323 79.9407 124.188 79.4107 124.188C78.8585 124.188 78.3984 124.33 78.0304 124.613C77.666 124.893 77.3917 125.274 77.2077 125.756C77.0273 126.235 76.9372 126.772 76.9372 127.369C76.9372 127.972 77.0292 128.521 77.2132 129.014C77.4009 129.503 77.677 129.894 78.0414 130.184C78.4095 130.472 78.8659 130.615 79.4107 130.615ZM88.8907 131.786C88.1839 131.786 87.56 131.607 87.0189 131.25C86.4779 130.889 86.0546 130.381 85.7491 129.726C85.4436 129.067 85.2908 128.289 85.2908 127.391C85.2908 126.5 85.4436 125.727 85.7491 125.072C86.0546 124.417 86.4797 123.91 87.0245 123.553C87.5692 123.196 88.1987 123.018 88.9127 123.018C89.4649 123.018 89.901 123.11 90.2213 123.294C90.5452 123.474 90.7918 123.68 90.9611 123.912C91.1341 124.14 91.2685 124.328 91.3642 124.475H91.4746V120.301H92.7776V131.609H91.5188V130.306H91.3642C91.2685 130.46 91.1323 130.656 90.9556 130.891C90.7789 131.123 90.5268 131.331 90.1992 131.515C89.8716 131.695 89.4354 131.786 88.8907 131.786ZM89.0673 130.615C89.59 130.615 90.0317 130.479 90.3924 130.206C90.7531 129.93 91.0274 129.549 91.2151 129.064C91.4028 128.574 91.4967 128.009 91.4967 127.369C91.4967 126.735 91.4047 126.182 91.2206 125.707C91.0366 125.228 90.7642 124.856 90.4035 124.591C90.0427 124.323 89.5974 124.188 89.0673 124.188C88.5152 124.188 88.0551 124.33 87.687 124.613C87.3226 124.893 87.0484 125.274 86.8644 125.756C86.684 126.235 86.5938 126.772 86.5938 127.369C86.5938 127.972 86.6858 128.521 86.8699 129.014C87.0576 129.503 87.3337 129.894 87.6981 130.184C88.0661 130.472 88.5226 130.615 89.0673 130.615ZM103.406 123.128V124.233H99.0111V123.128H103.406ZM100.292 121.096H101.595V129.18C101.595 129.548 101.648 129.824 101.755 130.008C101.866 130.188 102.005 130.31 102.175 130.372C102.348 130.431 102.53 130.46 102.721 130.46C102.865 130.46 102.983 130.453 103.075 130.438C103.167 130.42 103.24 130.405 103.296 130.394L103.561 131.565C103.472 131.598 103.349 131.631 103.191 131.664C103.032 131.701 102.832 131.719 102.589 131.719C102.221 131.719 101.86 131.64 101.507 131.482C101.157 131.324 100.866 131.083 100.634 130.759C100.406 130.435 100.292 130.026 100.292 129.533V121.096ZM108.72 131.786C107.955 131.786 107.283 131.603 106.705 131.239C106.131 130.875 105.682 130.365 105.358 129.71C105.038 129.054 104.877 128.289 104.877 127.413C104.877 126.529 105.038 125.758 105.358 125.099C105.682 124.44 106.131 123.929 106.705 123.564C107.283 123.2 107.955 123.018 108.72 123.018C109.486 123.018 110.156 123.2 110.73 123.564C111.308 123.929 111.757 124.44 112.077 125.099C112.401 125.758 112.563 126.529 112.563 127.413C112.563 128.289 112.401 129.054 112.077 129.71C111.757 130.365 111.308 130.875 110.73 131.239C110.156 131.603 109.486 131.786 108.72 131.786ZM108.72 130.615C109.302 130.615 109.78 130.466 110.156 130.168C110.531 129.87 110.809 129.478 110.989 128.992C111.17 128.506 111.26 127.98 111.26 127.413C111.26 126.846 111.17 126.318 110.989 125.828C110.809 125.339 110.531 124.943 110.156 124.641C109.78 124.339 109.302 124.188 108.72 124.188C108.139 124.188 107.66 124.339 107.285 124.641C106.909 124.943 106.631 125.339 106.451 125.828C106.271 126.318 106.18 126.846 106.18 127.413C106.18 127.98 106.271 128.506 106.451 128.992C106.631 129.478 106.909 129.87 107.285 130.168C107.66 130.466 108.139 130.615 108.72 130.615ZM120.228 120.301V131.609H118.925V120.301H120.228ZM122.614 131.609V123.128H123.917V131.609H122.614ZM123.277 121.715C123.023 121.715 122.804 121.628 122.62 121.455C122.44 121.282 122.349 121.074 122.349 120.831C122.349 120.588 122.44 120.381 122.62 120.208C122.804 120.035 123.023 119.948 123.277 119.948C123.531 119.948 123.748 120.035 123.928 120.208C124.113 120.381 124.205 120.588 124.205 120.831C124.205 121.074 124.113 121.282 123.928 121.455C123.748 121.628 123.531 121.715 123.277 121.715ZM132.311 125.028L131.141 125.359C131.067 125.164 130.958 124.974 130.815 124.79C130.675 124.602 130.484 124.448 130.241 124.326C129.998 124.205 129.687 124.144 129.308 124.144C128.789 124.144 128.356 124.264 128.01 124.503C127.668 124.739 127.497 125.039 127.497 125.403C127.497 125.727 127.614 125.983 127.85 126.17C128.086 126.358 128.454 126.515 128.954 126.64L130.213 126.949C130.971 127.133 131.536 127.415 131.908 127.794C132.28 128.169 132.466 128.653 132.466 129.246C132.466 129.732 132.326 130.166 132.046 130.549C131.77 130.932 131.384 131.233 130.887 131.454C130.39 131.675 129.812 131.786 129.153 131.786C128.288 131.786 127.572 131.598 127.005 131.222C126.438 130.847 126.079 130.299 125.929 129.577L127.165 129.268C127.283 129.724 127.506 130.067 127.833 130.295C128.165 130.523 128.597 130.637 129.131 130.637C129.738 130.637 130.22 130.508 130.577 130.251C130.938 129.989 131.119 129.676 131.119 129.312C131.119 129.018 131.015 128.771 130.809 128.572C130.603 128.37 130.287 128.219 129.86 128.119L128.446 127.788C127.67 127.604 127.099 127.319 126.735 126.932C126.374 126.542 126.194 126.055 126.194 125.469C126.194 124.991 126.328 124.567 126.597 124.199C126.869 123.831 127.239 123.542 127.706 123.333C128.178 123.123 128.711 123.018 129.308 123.018C130.147 123.018 130.806 123.202 131.284 123.57C131.766 123.938 132.109 124.424 132.311 125.028ZM138.115 123.128V124.233H133.72V123.128H138.115ZM135.001 121.096H136.304V129.18C136.304 129.548 136.358 129.824 136.464 130.008C136.575 130.188 136.715 130.31 136.884 130.372C137.057 130.431 137.239 130.46 137.431 130.46C137.574 130.46 137.692 130.453 137.784 130.438C137.876 130.42 137.95 130.405 138.005 130.394L138.27 131.565C138.182 131.598 138.058 131.631 137.9 131.664C137.742 131.701 137.541 131.719 137.298 131.719C136.93 131.719 136.569 131.64 136.216 131.482C135.866 131.324 135.576 131.083 135.344 130.759C135.115 130.435 135.001 130.026 135.001 129.533V121.096Z" fill="black"/>
<path d="M59.6 128.825H52.3814V136.043H49.9752V128.825H42.7565V126.418H49.9752V119.2H52.3814V126.418H59.6V128.825Z" fill="black"/>
</svg>
